<?xml version="1.0" encoding="utf-8"?>
<!-- Generator: Adobe Illustrator 18.0.0, SVG Export Plug-In . SVG Version: 6.00 Build 0)  -->
<!DOCTYPE svg PUBLIC "-//W3C//DTD SVG 1.1//EN" "http://www.w3.org/Graphics/SVG/1.1/DTD/svg11.dtd">
<svg version="1.1" id="Layer_1" xmlns="http://www.w3.org/2000/svg" xmlns:xlink="http://www.w3.org/1999/xlink" x="0px" y="0px"
	 viewBox="0 0 63.2 32.6" enable-background="new 0 0 63.2 32.6" xml:space="preserve">
<path fill="#263238" d="M54.6,26.7l-6.8-0.5l0.8-5.3L58,10.6l3.8,4.2l0.3,7.3L54.6,26.7z M59.6,26.7h-2.9l3.1-1.9L59.6,26.7z
	 M29.3,24.9l5.6-6l6.4,5.7l-14.2,6.5L29.3,24.9z M17.3,20.8L40.7,4.7l1.7-0.8l-0.7,19.6l-6.5-5.8c-0.2-0.2-0.5-0.2-0.7,0l-5.8,6.3
	l-9-0.2L17.3,20.8z M15.3,15.4l3.8-1.7l2.3,3l-4.6,3.2L15.3,15.4z M6.2,18.3l-4.3-0.1l6.9-6.3l8.5,1.4L6.2,18.3z M9.4,1.4l8.6,10.9
	l-8.9-1.5L6.5,1.1L9.4,1.4z M43.4,6.3l4.3,14.4L46.8,26l-4.1-1.6L43.4,6.3z M57.3,9.8l-8.9,9.8L43.7,3.7l10,2.1L57.3,9.8z
	 M63.2,22.4l-0.3-7.8c0-0.1-0.1-0.2-0.1-0.3L54.4,5c-0.1-0.1-0.2-0.1-0.3-0.2L43,2.5c0,0,0,0,0,0c0,0,0,0,0,0c0,0,0,0,0,0
	c0,0,0,0,0,0c0,0-0.1,0-0.1,0c0,0,0,0,0,0c0,0,0,0,0,0c0,0,0,0,0,0l-2.5,1.2c0,0-0.1,0-0.1,0L22.2,16.1L10.1,0.6
	C10,0.5,9.8,0.4,9.7,0.4L5.8,0C5.6,0,5.5,0.1,5.4,0.2C5.2,0.3,5.2,0.5,5.2,0.7l2.8,10.5l-7.9,7.1C0,18.4,0,18.7,0,18.9
	c0.1,0.2,0.3,0.3,0.5,0.3l5.8,0.1c0,0,0,0,0,0c0.1,0,0.1,0,0.2,0l7.8-3.4l1.7,5c0,0.1,0,0.1,0.1,0.2l0,0c0,0,0,0,0,0l2.9,3.6
	c0.1,0.1,0.2,0.2,0.4,0.2l8.8,0.2l-2.5,6.8c-0.1,0.2,0,0.4,0.1,0.6c0.1,0.1,0.2,0.1,0.4,0.1c0.1,0,0.2,0,0.2,0l15.8-7.3l4.8,1.9
	c0,0,0.1,0,0.1,0c0,0,0,0,0.1,0l7.5,0.5c0,0,0,0,0,0H60c0.3,0,0.5-0.2,0.5-0.5l0.4-3.2l2-1.3C63.1,22.7,63.2,22.5,63.2,22.4z"/>
</svg>
